<?xml version="1.0" encoding="UTF-8"?>
<svg width="128" height="128" viewBox="0 0 128 128" xmlns="http://www.w3.org/2000/svg">
  <defs>
    <!-- Earth gradient -->
    <radialGradient id="earthGradient" cx="30%" cy="30%">
      <stop offset="0%" style="stop-color:#60a5fa;stop-opacity:1" />
      <stop offset="40%" style="stop-color:#3b82f6;stop-opacity:1" />
      <stop offset="100%" style="stop-color:#1e40af;stop-opacity:1" />
    </radialGradient>
    
    <!-- Land gradient -->
    <linearGradient id="landGradient" x1="0%" y1="0%" x2="100%" y2="100%">
      <stop offset="0%" style="stop-color:#22c55e;stop-opacity:1" />
      <stop offset="100%" style="stop-color:#16a34a;stop-opacity:1" />
    </linearGradient>
    
    <!-- Korea highlight gradient -->
    <radialGradient id="koreaGradient" cx="50%" cy="50%">
      <stop offset="0%" style="stop-color:#fbbf24;stop-opacity:1" />
      <stop offset="100%" style="stop-color:#f59e0b;stop-opacity:1" />
    </radialGradient>
    
    <!-- Text gradient -->
    <linearGradient id="textGradient" x1="0%" y1="0%" x2="100%" y2="100%">
      <stop offset="0%" style="stop-color:#ffffff;stop-opacity:1" />
      <stop offset="100%" style="stop-color:#f8fafc;stop-opacity:0.9" />
    </linearGradient>
    
    <!-- Glow filter -->
    <filter id="glow">
      <feGaussianBlur stdDeviation="2" result="coloredBlur"/>
      <feMerge> 
        <feMergeNode in="coloredBlur"/>
        <feMergeNode in="SourceGraphic"/>
      </feMerge>
    </filter>
    
    <!-- Shadow filter -->
    <filter id="shadow" x="-50%" y="-50%" width="200%" height="200%">
      <feDropShadow dx="0" dy="4" stdDeviation="6" flood-color="#000000" flood-opacity="0.25"/>
    </filter>
    
    <!-- Earth shadow -->
    <filter id="earthShadow">
      <feDropShadow dx="2" dy="2" stdDeviation="4" flood-color="#000000" flood-opacity="0.3"/>
    </filter>
  </defs>
  
  <!-- Background -->
  <rect x="0" y="0" width="128" height="128" rx="24" ry="24" fill="#1e293b"/>
  
  <!-- Earth sphere -->
  <circle cx="64" cy="64" r="50" 
          fill="url(#earthGradient)" 
          filter="url(#earthShadow)"/>
  
  <!-- Earth highlight -->
  <ellipse cx="52" cy="52" rx="12" ry="8" 
           fill="rgba(255,255,255,0.2)" 
           opacity="0.6"/>
  
  <!-- Land masses (simplified continents) -->
  <g opacity="0.8">
    <!-- Asia-Pacific region -->
    <path d="M 45 35 Q 55 30, 70 35 Q 85 40, 90 55 Q 85 70, 75 80 Q 65 85, 50 80 Q 40 70, 35 55 Q 40 40, 45 35" 
          fill="url(#landGradient)"/>
    
    <!-- Additional land details -->
    <ellipse cx="58" cy="58" rx="8" ry="12" fill="url(#landGradient)" opacity="0.7"/>
    <ellipse cx="78" cy="45" rx="6" ry="8" fill="url(#landGradient)" opacity="0.6"/>
    <ellipse cx="45" cy="72" rx="5" ry="7" fill="url(#landGradient)" opacity="0.5"/>
  </g>
  
  <!-- Korea highlight spot -->
  <circle cx="75" cy="52" r="8" 
          fill="url(#koreaGradient)" 
          filter="url(#glow)"
          opacity="0.9"/>
  
  <!-- KR text on Korea spot -->
  <g transform="translate(75, 52)" filter="url(#glow)">
    <!-- K -->
    <path d="M -4 -6 L -4 6 M -4 -2 L 2 -6 M -4 2 L 2 6" 
          stroke="white" 
          stroke-width="1.5" 
          stroke-linecap="round" 
          stroke-linejoin="round" 
          fill="none"/>
    <!-- R -->
    <path d="M 3 -6 L 3 6 M 3 -6 L 7 -6 Q 9 -6, 9 -2 Q 9 2, 3 2 M 3 2 L 9 6" 
          stroke="white" 
          stroke-width="1.5" 
          stroke-linecap="round" 
          stroke-linejoin="round" 
          fill="none"/>
  </g>
  
  <!-- Translation arrows around the globe -->
  <g opacity="0.8">
    <!-- Circular translation flow -->
    <path d="M 30 45 Q 20 35, 25 25" 
          stroke="url(#koreaGradient)" 
          stroke-width="2" 
          stroke-linecap="round" 
          fill="none"
          opacity="0.6"/>
    <path d="M 22 28 L 25 25 L 28 28" 
          stroke="url(#koreaGradient)" 
          stroke-width="2" 
          stroke-linecap="round" 
          fill="none"
          opacity="0.6"/>
    
    <path d="M 98 83 Q 108 93, 103 103" 
          stroke="url(#koreaGradient)" 
          stroke-width="2" 
          stroke-linecap="round" 
          fill="none"
          opacity="0.6"/>
    <path d="M 106 100 L 103 103 L 100 100" 
          stroke="url(#koreaGradient)" 
          stroke-width="2" 
          stroke-linecap="round" 
          fill="none"
          opacity="0.6"/>
  </g>
  
  <!-- Language symbols floating around -->
  <g opacity="0.7">
    <!-- Korean character "가" -->
    <g transform="translate(25, 85)">
      <rect x="-2" y="-2" width="6" height="1" rx="0.5" fill="url(#textGradient)"/>
      <rect x="0" y="-4" width="1" height="6" rx="0.5" fill="url(#textGradient)"/>
      <rect x="-2" y="1" width="6" height="1" rx="0.5" fill="url(#textGradient)"/>
      <rect x="3" y="-1" width="1" height="3" rx="0.5" fill="url(#textGradient)"/>
    </g>
    
    <!-- English "A" -->
    <g transform="translate(103, 43)">
      <path d="M -3 4 L 0 -4 L 3 4 M -2 1 L 2 1" 
            stroke="url(#textGradient)" 
            stroke-width="1.2" 
            stroke-linecap="round" 
            stroke-linejoin="round" 
            fill="none"/>
    </g>
    
    <!-- Translation symbol -->
    <g transform="translate(45, 20)">
      <path d="M -4 0 L 4 0 M 2 -2 L 4 0 L 2 2" 
            stroke="url(#koreaGradient)" 
            stroke-width="1.5" 
            stroke-linecap="round" 
            fill="none"/>
    </g>
  </g>
  
  <!-- Orbital rings for global feel -->
  <g opacity="0.3">
    <ellipse cx="64" cy="64" rx="58" ry="20" 
             fill="none" 
             stroke="rgba(255,255,255,0.4)" 
             stroke-width="1"
             stroke-dasharray="4,4"/>
    <ellipse cx="64" cy="64" rx="20" ry="58" 
             fill="none" 
             stroke="rgba(255,255,255,0.4)" 
             stroke-width="1"
             stroke-dasharray="4,4"/>
  </g>
  
  <!-- Corner accents -->
  <g opacity="0.4">
    <circle cx="20" cy="20" r="2" fill="url(#koreaGradient)"/>
    <circle cx="108" cy="20" r="1.5" fill="url(#koreaGradient)"/>
    <circle cx="20" cy="108" r="1.5" fill="url(#koreaGradient)"/>
    <circle cx="108" cy="108" r="2" fill="url(#koreaGradient)"/>
  </g>
</svg>